<?xml version="1.0" encoding="utf-8"?>
<!-- Generator: Adobe Illustrator 16.0.0, SVG Export Plug-In . SVG Version: 6.00 Build 0)  -->
<!DOCTYPE svg PUBLIC "-//W3C//DTD SVG 1.1//EN" "http://www.w3.org/Graphics/SVG/1.1/DTD/svg11.dtd">
<svg version="1.1" id="Layer_1" xmlns="http://www.w3.org/2000/svg" xmlns:xlink="http://www.w3.org/1999/xlink" x="0px" y="0px"
	 width="146px" height="26px" viewBox="0 0 146 26" enable-background="new 0 0 146 26" xml:space="preserve">
<title>Miracle Logo Blue</title>
<desc>Created with Sketch.</desc>
<g enable-background="new    ">
	<path fill="#00237E" d="M19.72,4.343c0.024-0.216,0.24-0.384,0.432-0.384h0.384c0.12,0,0.336,0.096,0.408,0.239l5.568,10.369h0.048
		l5.568-10.369c0.072-0.144,0.288-0.239,0.408-0.239h0.384c0.192,0,0.408,0.168,0.432,0.384l2.712,16.129
		C36.114,20.784,35.898,21,35.61,21h-2.833c-0.216,0-0.432-0.191-0.456-0.384l-1.08-7.417h-0.048l-4.032,7.775
		c-0.072,0.146-0.288,0.266-0.408,0.266h-0.432c-0.144,0-0.336-0.12-0.408-0.266l-4.057-7.775h-0.048l-1.056,7.417
		C20.729,20.809,20.537,21,20.296,21h-2.832c-0.288,0-0.504-0.216-0.456-0.528L19.72,4.343z"/>
	<path fill="#00237E" d="M41.248,4.654c0-0.239,0.216-0.456,0.456-0.456h2.88c0.24,0,0.456,0.217,0.456,0.456v15.89
		c0,0.24-0.216,0.456-0.456,0.456h-2.88c-0.24,0-0.456-0.216-0.456-0.456V4.654z"/>
	<path fill="#00237E" d="M51.112,4.654c0-0.239,0.192-0.456,0.456-0.456h7.177c3.048,0,5.232,2.328,5.232,5.185
		c0,2.208-1.32,3.984-3.552,4.824l3.288,6.097c0.168,0.313,0,0.696-0.408,0.696h-3.192c-0.192,0-0.336-0.12-0.384-0.216l-3.192-6.36
		H54.88v6.12c0,0.24-0.216,0.456-0.456,0.456h-2.856c-0.264,0-0.456-0.216-0.456-0.456V4.654z M58.433,11.375
		c0.984,0,1.824-0.792,1.824-1.92s-0.84-1.824-1.824-1.824H54.88v3.744H58.433z"/>
	<path fill="#00237E" d="M67.383,20.376l7.514-16.153c0.07-0.145,0.238-0.264,0.408-0.264h0.238c0.168,0,0.336,0.119,0.408,0.264
		l7.513,16.153C83.609,20.688,83.416,21,83.057,21h-2.664c-0.432,0-0.623-0.145-0.84-0.6l-0.863-1.896H72.16l-0.864,1.92
		C71.176,20.712,70.912,21,70.432,21h-2.64C67.431,21,67.239,20.688,67.383,20.376z M77.248,15.239l-1.824-3.96H75.4l-1.801,3.96
		H77.248z"/>
	<path fill="#00237E" d="M94.889,3.959c2.4,0,4.176,0.743,5.81,2.231c0.216,0.192,0.216,0.48,0.022,0.672L98.85,8.806
		c-0.168,0.168-0.434,0.168-0.602,0c-0.982-0.863-2.063-1.224-3.24-1.224c-2.711,0-4.703,2.256-4.703,4.944
		c0,2.664,2.016,4.872,4.729,4.872c1.32,0,2.354-0.408,3.216-1.151c0.168-0.145,0.479-0.145,0.625,0.023l1.872,1.992
		c0.168,0.168,0.145,0.48-0.023,0.648c-1.633,1.584-3.697,2.328-5.832,2.328c-4.802,0-8.666-3.816-8.666-8.617
		C86.225,7.823,90.088,3.959,94.889,3.959z"/>
	<path fill="#00237E" d="M105.759,4.654c0-0.239,0.192-0.456,0.456-0.456h2.855c0.24,0,0.457,0.217,0.457,0.456v12.817h5.713
		c0.264,0,0.455,0.216,0.455,0.456v2.616c0,0.24-0.191,0.456-0.455,0.456h-9.025c-0.264,0-0.456-0.216-0.456-0.456V4.654z"/>
	<path fill="#00237E" d="M120.279,4.654c0-0.239,0.191-0.456,0.455-0.456h9.938c0.264,0,0.456,0.217,0.456,0.456V7.27
		c0,0.24-0.192,0.456-0.456,0.456h-6.648v2.977h5.474c0.239,0,0.455,0.216,0.455,0.456v2.616c0,0.264-0.216,0.456-0.455,0.456
		h-5.474v3.24h6.648c0.264,0,0.456,0.216,0.456,0.456v2.616c0,0.24-0.192,0.456-0.456,0.456h-9.938
		c-0.264,0-0.455-0.216-0.455-0.456V4.654z"/>
</g>
<polygon id="Fill-1" fill="#00237E" points="6.501,7 7.409,10.834 11,9.75 8.321,12.5 11,15.252 7.409,14.168 6.501,18 
	5.592,14.168 2,15.252 4.681,12.5 2,9.75 5.592,10.834 "/>
<polygon id="Fill-1-Copy" fill="#00237E" points="139.502,7 140.409,10.834 144,9.75 141.32,12.5 144,15.252 140.409,14.168 
	139.502,18 138.592,14.168 135,15.252 137.682,12.5 135,9.75 138.592,10.834 "/>
</svg>
